<svg version="1" xmlns="http://www.w3.org/2000/svg" width="792" height="792" viewBox="0 0 594.000000 594.000000"><path d="M0 297v297h594V0H0v297zm222.8-159.3c-14.4 18.8-25.3 32.9-92.7 120.7-15.6 20.3-28.4 37.5-28.5 38.1 0 .7 10.7 15.4 24 32.6 13.2 17.3 43.4 56.6 67 87.4 23.7 30.8 43.4 56.6 43.8 57.2.6 1-9.5 1.3-49.3 1.3h-50l-11.4-14.8C64.4 380.9 1 297.7 1 296.7c0-.6 9.3-13.4 20.7-28.2 11.4-14.9 37.4-48.7 57.8-75.2 20.3-26.5 41.7-54.2 47.4-61.7l10.4-13.6H238l-15.2 19.7zM506 156.5V195H356.1l-.3 23.1-.3 23.1 2.5-.5c1.4-.2 7.2-1.5 13-2.8 9.1-2 13.2-2.3 30.5-2.4 17.3 0 21.4.3 30.3 2.3 36.1 8.1 63.8 28.7 78.8 58.5 25.7 51 11.6 119.4-31.8 154.2-31.1 24.9-74.1 34-118.3 25-44.8-9.2-76.5-37.7-86.4-77.6-1.9-7.9-4.7-26.8-3.9-27.3.3-.3 74.9-12.7 75.9-12.6.4 0 .9 1.7 1.3 3.8 1 6.5 6.3 15.8 11.9 20.7 9.6 8.7 20.1 12.5 34.2 12.5 25.3 0 43-13.1 46.7-34.7 3.9-23.3-10.8-43.7-36.7-50.8-8.2-2.2-24.6-3-32.8-1.6-10.4 1.8-21.1 5.7-36.5 13.3l-14.3 7-22.2-9.9-22.2-9.9-.3-95.2-.2-95.2h231v38.5z"/></svg>